<svg width="154" height="38" viewBox="0 0 154 38" fill="none" xmlns="http://www.w3.org/2000/svg">
<g clip-path="url(#clip0_5_2)">
<path d="M9.91925 7.28H11.8073L21.2473 30H18.8793L15.9353 22.896H5.72725L2.81525 30H0.41525L9.91925 7.28ZM15.4233 21.136L10.8473 9.904L6.20725 21.136H15.4233ZM32.3763 15.248C30.9256 15.2907 29.6456 15.696 28.5363 16.464C27.4483 17.232 26.6803 18.288 26.2323 19.632V30H24.0563V13.328H26.1043V17.328C26.6803 16.1547 27.4376 15.2053 28.3763 14.48C29.3363 13.7547 30.3496 13.3493 31.4163 13.264C31.6296 13.2427 31.8109 13.232 31.9603 13.232C32.1309 13.232 32.2696 13.2427 32.3763 13.264V15.248ZM41.9758 30.32C40.7598 30.32 39.6398 30.096 38.6158 29.648C37.6131 29.1787 36.7278 28.5387 35.9598 27.728C35.2131 26.9173 34.6264 25.9893 34.1998 24.944C33.7944 23.8987 33.5918 22.7893 33.5918 21.616C33.5918 20.0373 33.9438 18.5973 34.6478 17.296C35.3518 15.9947 36.3331 14.96 37.5918 14.192C38.8504 13.424 40.3011 13.04 41.9438 13.04C43.5011 13.04 44.8771 13.4027 46.0718 14.128C47.2664 14.832 48.1518 15.792 48.7278 17.008L46.6158 17.68C46.1464 16.8267 45.4851 16.1653 44.6318 15.696C43.7998 15.2053 42.8718 14.96 41.8478 14.96C40.7384 14.96 39.7251 15.248 38.8078 15.824C37.8904 16.4 37.1544 17.1893 36.5998 18.192C36.0664 19.1947 35.7998 20.336 35.7998 21.616C35.7998 22.8747 36.0771 24.016 36.6318 25.04C37.1864 26.064 37.9224 26.8853 38.8398 27.504C39.7571 28.1013 40.7704 28.4 41.8798 28.4C42.6051 28.4 43.2984 28.272 43.9598 28.016C44.6424 27.76 45.2291 27.4187 45.7198 26.992C46.2318 26.544 46.5731 26.064 46.7438 25.552L48.8878 26.192C48.5891 26.9813 48.0878 27.696 47.3838 28.336C46.7011 28.9547 45.8904 29.4453 44.9518 29.808C44.0344 30.1493 43.0424 30.32 41.9758 30.32Z" fill="#80D4F7"/>
<path d="M59.254 30.32C58.0593 30.32 56.95 30.096 55.926 29.648C54.9233 29.1787 54.0487 28.5493 53.302 27.76C52.5767 26.9493 52.0113 26.032 51.606 25.008C51.2007 23.9627 50.998 22.864 50.998 21.712C50.998 20.5173 51.2007 19.408 51.606 18.384C52.0113 17.3387 52.5873 16.4213 53.334 15.632C54.0807 14.8213 54.9553 14.192 55.958 13.744C56.982 13.2747 58.0913 13.04 59.286 13.04C60.4807 13.04 61.5793 13.2747 62.582 13.744C63.5847 14.192 64.4593 14.8213 65.206 15.632C65.9527 16.4213 66.5287 17.3387 66.934 18.384C67.3393 19.408 67.542 20.5173 67.542 21.712C67.542 22.864 67.3393 23.9627 66.934 25.008C66.5287 26.032 65.9527 26.9493 65.206 27.76C64.4807 28.5493 63.606 29.1787 62.582 29.648C61.5793 30.096 60.47 30.32 59.254 30.32ZM53.206 21.744C53.206 22.9813 53.4727 24.112 54.006 25.136C54.5607 26.1387 55.2967 26.9387 56.214 27.536C57.1313 28.112 58.1447 28.4 59.254 28.4C60.3633 28.4 61.3767 28.1013 62.294 27.504C63.2113 26.9067 63.9473 26.096 64.502 25.072C65.0567 24.0267 65.334 22.896 65.334 21.68C65.334 20.4427 65.0567 19.312 64.502 18.288C63.9473 17.264 63.2113 16.4533 62.294 15.856C61.3767 15.2587 60.3633 14.96 59.254 14.96C58.1447 14.96 57.1313 15.2693 56.214 15.888C55.318 16.5067 54.5927 17.328 54.038 18.352C53.4833 19.3547 53.206 20.4853 53.206 21.744Z" fill="white"/>
<path d="M76.6533 30.32C75.2879 30.32 74.0186 30.096 72.8453 29.648C71.6719 29.2 70.6586 28.5173 69.8053 27.6L70.7013 26.064C71.6399 26.9387 72.5786 27.5787 73.5173 27.984C74.4773 28.368 75.4906 28.56 76.5573 28.56C77.8586 28.56 78.9146 28.304 79.7253 27.792C80.5359 27.2587 80.9413 26.5013 80.9413 25.52C80.9413 24.8587 80.7386 24.3573 80.3333 24.016C79.9493 23.6533 79.3839 23.3653 78.6373 23.152C77.9119 22.9173 77.0373 22.672 76.0133 22.416C74.8613 22.096 73.8906 21.7653 73.1013 21.424C72.3333 21.0613 71.7466 20.6133 71.3413 20.08C70.9573 19.5253 70.7653 18.8107 70.7653 17.936C70.7653 16.848 71.0319 15.952 71.5653 15.248C72.1199 14.5227 72.8666 13.9787 73.8053 13.616C74.7653 13.232 75.8319 13.04 77.0052 13.04C78.2853 13.04 79.4159 13.2427 80.3973 13.648C81.3786 14.0533 82.1786 14.6187 82.7973 15.344L81.7413 16.816C81.1439 16.1333 80.4293 15.632 79.5973 15.312C78.7866 14.9707 77.8799 14.8 76.8773 14.8C76.1946 14.8 75.5439 14.896 74.9253 15.088C74.3066 15.2587 73.7946 15.5573 73.3893 15.984C73.0053 16.3893 72.8133 16.9547 72.8133 17.68C72.8133 18.2773 72.9626 18.7467 73.2613 19.088C73.5599 19.408 74.0079 19.6853 74.6053 19.92C75.2026 20.1333 75.9386 20.368 76.8133 20.624C78.0719 20.9653 79.1706 21.3173 80.1093 21.68C81.0479 22.0213 81.7733 22.4693 82.2853 23.024C82.7973 23.5787 83.0533 24.3573 83.0533 25.36C83.0533 26.9173 82.4666 28.1333 81.2933 29.008C80.1199 29.8827 78.5733 30.32 76.6533 30.32ZM93.754 30.32C92.5593 30.32 91.45 30.096 90.426 29.648C89.4233 29.1787 88.5487 28.5493 87.802 27.76C87.0767 26.9493 86.5113 26.032 86.106 25.008C85.7007 23.9627 85.498 22.864 85.498 21.712C85.498 20.5173 85.7007 19.408 86.106 18.384C86.5113 17.3387 87.0873 16.4213 87.834 15.632C88.5807 14.8213 89.4553 14.192 90.458 13.744C91.482 13.2747 92.5913 13.04 93.786 13.04C94.9807 13.04 96.0793 13.2747 97.082 13.744C98.0847 14.192 98.9593 14.8213 99.706 15.632C100.453 16.4213 101.029 17.3387 101.434 18.384C101.839 19.408 102.042 20.5173 102.042 21.712C102.042 22.864 101.839 23.9627 101.434 25.008C101.029 26.032 100.453 26.9493 99.706 27.76C98.9807 28.5493 98.106 29.1787 97.082 29.648C96.0793 30.096 94.97 30.32 93.754 30.32ZM87.706 21.744C87.706 22.9813 87.9727 24.112 88.506 25.136C89.0607 26.1387 89.7967 26.9387 90.714 27.536C91.6313 28.112 92.6447 28.4 93.754 28.4C94.8633 28.4 95.8767 28.1013 96.794 27.504C97.7113 26.9067 98.4473 26.096 99.002 25.072C99.5567 24.0267 99.834 22.896 99.834 21.68C99.834 20.4427 99.5567 19.312 99.002 18.288C98.4473 17.264 97.7113 16.4533 96.794 15.856C95.8767 15.2587 94.8633 14.96 93.754 14.96C92.6447 14.96 91.6313 15.2693 90.714 15.888C89.818 16.5067 89.0927 17.328 88.538 18.352C87.9833 19.3547 87.706 20.4853 87.706 21.744ZM112.913 30.32C111.697 30.32 110.577 30.096 109.553 29.648C108.551 29.1787 107.665 28.5387 106.897 27.728C106.151 26.9173 105.564 25.9893 105.137 24.944C104.732 23.8987 104.529 22.7893 104.529 21.616C104.529 20.0373 104.881 18.5973 105.585 17.296C106.289 15.9947 107.271 14.96 108.529 14.192C109.788 13.424 111.239 13.04 112.881 13.04C114.439 13.04 115.815 13.4027 117.009 14.128C118.204 14.832 119.089 15.792 119.665 17.008L117.553 17.68C117.084 16.8267 116.423 16.1653 115.569 15.696C114.737 15.2053 113.809 14.96 112.785 14.96C111.676 14.96 110.663 15.248 109.745 15.824C108.828 16.4 108.092 17.1893 107.537 18.192C107.004 19.1947 106.737 20.336 106.737 21.616C106.737 22.8747 107.015 24.016 107.569 25.04C108.124 26.064 108.86 26.8853 109.777 27.504C110.695 28.1013 111.708 28.4 112.817 28.4C113.543 28.4 114.236 28.272 114.897 28.016C115.58 27.76 116.167 27.4187 116.657 26.992C117.169 26.544 117.511 26.064 117.681 25.552L119.825 26.192C119.527 26.9813 119.025 27.696 118.321 28.336C117.639 28.9547 116.828 29.4453 115.889 29.808C114.972 30.1493 113.98 30.32 112.913 30.32ZM123.244 30V13.328H125.42V30H123.244ZM123.244 9.84V6.64H125.42V9.84H123.244ZM128.868 25.2C128.868 24.1547 129.167 23.2587 129.765 22.512C130.362 21.744 131.183 21.1573 132.229 20.752C133.295 20.3253 134.522 20.112 135.909 20.112C136.719 20.112 137.562 20.176 138.437 20.304C139.311 20.432 140.09 20.624 140.773 20.88V19.472C140.773 18.064 140.357 16.944 139.525 16.112C138.693 15.28 137.541 14.864 136.069 14.864C135.173 14.864 134.287 15.0347 133.413 15.376C132.559 15.696 131.663 16.176 130.725 16.816L129.893 15.28C130.981 14.5333 132.047 13.9787 133.093 13.616C134.138 13.232 135.205 13.04 136.293 13.04C138.341 13.04 139.962 13.6267 141.157 14.8C142.351 15.9733 142.949 17.5947 142.949 19.664V27.376C142.949 27.6747 143.013 27.8987 143.141 28.048C143.269 28.176 143.471 28.2507 143.749 28.272V30C143.514 30.0213 143.311 30.0427 143.141 30.064C142.97 30.0853 142.842 30.0853 142.757 30.064C142.223 30.0427 141.818 29.872 141.541 29.552C141.263 29.232 141.114 28.8907 141.093 28.528L141.061 27.312C140.314 28.272 139.343 29.0187 138.149 29.552C136.954 30.064 135.738 30.32 134.501 30.32C133.434 30.32 132.463 30.096 131.589 29.648C130.735 29.1787 130.063 28.56 129.573 27.792C129.103 27.0027 128.868 26.1387 128.868 25.2ZM140.037 26.48C140.271 26.1813 140.453 25.8933 140.581 25.616C140.709 25.3387 140.773 25.0933 140.773 24.88V22.448C140.047 22.1707 139.29 21.9573 138.501 21.808C137.733 21.6587 136.954 21.584 136.165 21.584C134.607 21.584 133.349 21.8933 132.389 22.512C131.429 23.1307 130.949 23.9733 130.949 25.04C130.949 25.6587 131.109 26.2453 131.429 26.8C131.749 27.3333 132.218 27.7813 132.837 28.144C133.455 28.4853 134.181 28.656 135.013 28.656C136.058 28.656 137.029 28.4533 137.925 28.048C138.842 27.6427 139.546 27.12 140.037 26.48ZM147.746 6.64H149.922V26.224C149.922 27.056 150.071 27.6 150.37 27.856C150.669 28.112 151.031 28.24 151.458 28.24C151.842 28.24 152.226 28.1973 152.61 28.112C152.994 28.0267 153.325 27.9413 153.602 27.856L153.986 29.616C153.581 29.7867 153.079 29.9253 152.482 30.032C151.906 30.1387 151.405 30.192 150.978 30.192C149.997 30.192 149.207 29.904 148.61 29.328C148.034 28.752 147.746 27.9627 147.746 26.96V6.64Z" fill="#FE83C6"/>
</g>
<defs>
<clipPath id="clip0_5_2">
<rect width="154" height="38" fill="white"/>
</clipPath>
</defs>
</svg>
